<svg width="32" height="32" xmlns="http://www.w3.org/2000/svg">
 <title/>

 <g>
  <title>background</title>
  <rect fill="none" id="canvas_background" height="402" width="582" y="-1" x="-1"/>
 </g>
 <g>
  <title>Layer 1</title>
  <path id="Rectangle 1 copy 2" d="m21,4c-0.55614,0 -1,-0.45191 -1,-1.00937l0,-1.98126c0,-0.56602 0.44772,-1.00937 1,-1.00937c0.55614,0 0.76699,0.29657 1.23301,1.00937l-0.23301,1.98126c0,0.56602 -0.44772,1.00937 -1,1.00937zm4.95247,2.05138c-0.39325,-0.39325 -0.38756,-1.02666 0.00662,-1.42084l1.40097,-1.40096c0.40023,-0.40024 1.03031,-0.39715 1.42083,-0.00663c0.39325,0.39325 0.38756,1.02666 -0.00662,1.42084l-1.40097,1.40096c-0.40023,0.40024 -1.03031,0.39715 -1.42083,0.00663zm-8.94464,0.46941c1.06057,-0.94592 2.45924,-1.52079 3.99217,-1.52079c3.31371,0 6,2.68629 6,6c0,0.31445 -0.02419,0.62324 -0.07081,0.92463c0.26418,0.40035 0.48527,0.83164 0.65665,1.28727c2.54386,0.69555 4.41416,3.02347 4.41416,5.7881c0,3.30697 -2.68637,6 -6.00018,6l-19.99964,0c-3.3132,0 -6.00018,-2.68629 -6.00018,-6c0,-2.21716 1.20754,-4.15836 3.00211,-5.19701c0.1048,-4.87959 4.09316,-8.80299 8.99789,-8.80299c1.85352,0 3.57618,0.56031 5.00783,1.52079zm8.96471,8.47921c-0.24874,-2.24998 -2.15627,-4 -4.47254,-4c-1.05725,0 -2.02934,0.3646 -2.79739,0.97492c-0.86854,-2.87859 -3.54076,-4.97492 -6.70261,-4.97492c-3.86599,0 -7,3.13401 -7,7c0,0.37579 0.02961,0.74467 0.08663,1.10442c-1.76884,0.41316 -3.08663,2.00366 -3.08663,3.89558c0,2.20914 1.79412,4 3.99684,4l20.00632,0c2.20739,0 3.99684,-1.79536 3.99684,-4c0,-2.20914 -1.79412,-4 -3.99684,-4l-0.03062,0zm2.03131,-3.99615c0,-0.55614 0.45191,-1 1.00936,-1l1.98127,0c0.56601,0 1.00937,0.44771 1.00937,1c0,0.55613 -0.45191,1 -1.00937,1l-1.98127,0c-0.56601,0 -1.00936,-0.44772 -1.00936,-1zm-3.14797,-1.07167c-0.46718,-1.69071 -2.01655,-2.93218 -3.85588,-2.93218c-0.92054,0 -1.76845,0.31096 -2.44443,0.83356c0.41238,0.43824 0.78131,0.91782 1.0999,1.43187c0.58474,-0.17273 1.20381,-0.26543 1.84453,-0.26543c1.2279,0 2.37629,0.34048 3.35588,0.93218zm0,0" fill="#fcb901"/>
  <path d="m21.165047,7.805827c0,0 -0.077671,0 -0.15534,0c-0.077669,0 -0.15534,0 -0.233009,0c-0.077671,0 -0.233009,0 -0.54369,0c-0.310678,0 -0.466019,0 -0.621359,0c-0.077669,0 -0.15534,0 -0.15534,0.07767c0,0.07767 0.059826,0.157418 0.077671,0.23301c0.039902,0.169028 0.155338,0.233009 0.233009,0.233009c0.15534,0 0.235086,0.017845 0.310678,0c0.169029,-0.039903 0.203287,-0.161252 0.233009,-0.233009c0.042036,-0.101481 0.077671,-0.15534 0.077671,-0.23301c0,-0.07767 -0.077671,-0.07767 -0.233009,-0.07767c-0.077671,0 -0.15534,0 -0.233009,0c-0.077671,0 -0.157417,-0.017845 -0.233011,0c-0.169027,0.039903 -0.233009,0.15534 -0.310678,0.15534c-0.15534,0 -0.233009,0.07767 -0.31068,0.07767c-0.077669,0 -0.077669,-0.07767 -0.077669,-0.15534c0,-0.07767 0.022749,-0.178089 0.077669,-0.23301c0.054922,-0.054922 0.05386,-0.113305 0.15534,-0.15534c0.071756,-0.029723 0.238922,-0.047946 0.31068,-0.07767c0.10148,-0.042035 0.155338,-0.07767 0.233009,-0.07767c0.077669,0 0.161253,0.029723 0.233009,0c0.10148,-0.042035 0.161253,-0.047947 0.233009,-0.07767c0.10148,-0.042035 0.15534,-0.07767 0.233009,-0.07767c0.077671,0 0.15534,0 0.233009,0c0.077671,0 0.233011,0 0.31068,0c0.077669,0 0.15534,0 0.233009,0c0.077671,0 0.15534,0 0.233009,0c0.077671,0 0.10042,0.022749 0.15534,0.07767c0.05492,0.05492 0.161253,0.047948 0.233009,0.07767c0.10148,0.042035 0.125618,0.083582 0.15534,0.15534c0.042034,0.10148 0.15534,0.07767 0.233009,0.15534c0.077671,0.077671 0.178089,0.100419 0.233009,0.15534c0.054922,0.054922 0.083584,0.047948 0.15534,0.07767c0.10148,0.042035 0.169788,0.053789 0.31068,0.15534c0.089108,0.064226 0.255758,0.02275 0.310678,0.07767c0.05492,0.05492 0.063982,0.115437 0.233009,0.155339c0.075594,0.017845 0.10042,0.022749 0.15534,0.07767c0.109842,0.109842 0.161253,0.047948 0.233009,0.07767c0.101482,0.042035 0.083584,0.125617 0.15534,0.155339c0.101482,0.042035 0.10042,0.100419 0.15534,0.15534c0.05492,0.05492 0.053858,0.113305 0.15534,0.15534c0.071756,0.029722 0.083582,0.047945 0.15534,0.077669c0.10148,0.042035 0.28793,0.178089 0.233009,0.23301c-0.054922,0.054922 -0.233009,0 -0.31068,0c-0.077669,0 -0.244833,-0.018224 -0.38835,-0.07767c-0.202961,-0.084069 -0.353333,-0.229527 -0.621359,-0.310679c-0.148674,-0.045015 -0.31068,-0.07767 -0.38835,-0.07767c-0.15534,0 -0.209198,-0.113305 -0.310678,-0.15534c-0.071758,-0.029724 -0.233011,0 -0.31068,0c-0.077669,0 -0.15534,0 -0.233009,0c-0.077671,0 -0.15534,0 -0.38835,0c-0.077671,0 -0.233009,0 -0.31068,0c-0.077669,0 -0.131527,0.035635 -0.233009,0.07767c-0.143517,0.059445 -0.38835,-0.000001 -0.38835,0.07767c0,0.077671 0.15534,0 0.233009,0c0.233011,0 0.54369,0.15534 0.54369,0c0,-0.077669 -0.15534,0 -0.233009,0c-0.077669,0 -0.467531,-0.030614 -0.776699,0c-0.394114,0.039025 -0.621359,0.07767 -0.854368,0.07767c-0.077671,0 -0.077671,0.07767 -0.077671,0.155339c0,0.07767 0.007605,0.219374 0.15534,0.310679c0.066071,0.040834 0.15534,0 0.233009,0c0.077671,0 0.297043,0.070067 0.38835,-0.077669c0.040834,-0.06607 0,-0.15534 0,-0.23301c0,-0.077669 0.02388,-0.169786 -0.077669,-0.310679c-0.064226,-0.089109 -0.15534,-0.07767 -0.233009,-0.07767c-0.15534,0 -0.233009,0 -0.31068,0c-0.15534,0 -0.233009,0.07767 -0.233009,0.15534c0,0.07767 -0.059444,0.167165 0,0.310679c0.042034,0.10148 0.15534,0.07767 0.233009,0.07767c0.077671,0 0.132591,-0.100419 0.077671,-0.15534c-0.054922,-0.054922 -0.233011,0 -0.233011,0.07767c0,0.07767 -0.029722,0.161252 0,0.233009c0.08407,0.202962 0.210262,0.210262 0.15534,0.15534c-0.109842,-0.109842 -0.091114,-0.22157 -0.15534,-0.310679c-0.101549,-0.140893 -0.190973,-0.286868 -0.233009,-0.38835c-0.029724,-0.071757 -0.077669,-0.07767 -0.077669,0c0,0.07767 0,0.15534 0,0.233009c0,0.15534 0.083582,0.203287 0.15534,0.23301c0.10148,0.042034 0.155338,0.077669 0.233009,0.077669c0.077669,0 0.070066,-0.141703 -0.077671,-0.233009c-0.066069,-0.040833 -0.233009,0 -0.233009,0.07767c0,0.07767 0.10042,0.13259 0.15534,0.07767c0.219683,-0.219684 0.077669,-0.699029 0.077669,-0.932039c0,-0.233009 0.05492,-0.333428 0,-0.388349c-0.05492,-0.05492 -0.155338,0 -0.155338,0.07767c0,0.07767 0.077669,0.233009 0.155338,0.233009c0.077671,0 0.190975,0.023811 0.233011,-0.077669c0.059446,-0.143515 -0.037767,-0.37466 -0.077671,-0.54369c-0.017845,-0.075592 -0.077669,-0.07767 -0.15534,-0.07767c-0.077669,0 -0.312069,-0.025425 -0.543688,0c-0.711805,0.078136 -1.189127,0.181553 -1.398058,0.310679c-0.093437,0.057747 -0.077671,0.23301 0.077669,0.23301c0.077669,0 0.233009,0 0.54369,0c0.233009,0 0.400173,-0.095895 0.543688,-0.15534c0.101482,-0.042035 0.233011,-0.15534 0.38835,-0.15534c0.15534,0 0.286869,-0.035635 0.38835,-0.07767c0.071758,-0.029724 0.143902,-0.013444 0.233011,-0.07767c0.140892,-0.101549 0.233009,-0.07767 0.310678,-0.07767c0.077669,0 0.131529,-0.035635 0.233009,-0.07767c0.143515,-0.059446 0.233009,0 0.31068,0c0.077669,0 0.178089,-0.05492 0.233009,0c0.109842,0.109842 -0.059799,0.197952 -0.38835,0.31068c-0.374603,0.12853 -0.621359,0.07767 -0.854368,0.07767c-0.077671,0 -0.185062,-0.005912 -0.15534,-0.07767c0.042034,-0.10148 0.239429,-0.209278 0.854368,-0.38835c0.235819,-0.068671 0.466021,-0.07767 0.621359,-0.07767c0.077671,0 0.15534,0 0.31068,0c0.15534,0 0.394583,-0.053535 0.621359,0c0.338058,0.079805 0.477842,0.095894 0.621359,0.15534c0.101482,0.042035 0.209198,0.190975 0.31068,0.23301c0.071756,0.029723 0.155338,0.07767 0.233009,0.15534c0.077669,0.07767 0.076506,0.17432 -0.077671,0.15534c-0.317841,-0.039128 -0.612156,-0.170118 -0.854368,-0.310679c-0.150213,-0.087173 -0.442207,-0.190975 -0.54369,-0.23301c-0.143515,-0.059445 -0.374659,-0.037767 -0.543688,-0.07767c-0.37796,-0.089224 -0.691868,-0.038542 -1.009708,-0.07767c-0.154177,-0.01898 -0.466021,-0.077671 -0.466021,0c0,0.15534 1.077948,-0.193666 1.320389,-0.233009c0.076666,-0.012441 0.15534,0 0.233009,0c0.15534,0 0.235086,-0.017845 0.31068,0c0.169027,0.039902 0.466019,0.15534 0.699028,0.233009c0.233009,0.07767 0.60767,0.193107 0.776699,0.23301c0.075592,0.017845 0.187874,-0.045137 0.31068,0.07767c0.122807,0.122807 0.100418,0.178089 0.155338,0.23301c0.054922,0.054922 0.045498,0.123168 0.15534,0.23301c0.054922,0.054922 0.059826,0.079748 0.077671,0.155339c0.039902,0.169029 0.310678,0.543689 0.38835,0.62136c0.077669,0.07767 0.178089,0.178088 0.233009,0.233009c0.05492,0.05492 0.21026,0.100419 0.15534,0.15534c-0.054922,0.054922 -0.233011,-0.07767 -0.466021,-0.310679c-0.15534,-0.15534 -0.36447,-0.325128 -0.466019,-0.46602c-0.064226,-0.089109 -0.233009,-0.15534 -0.38835,-0.23301c-0.15534,-0.077669 -0.247458,-0.209129 -0.38835,-0.310679c-0.089108,-0.064226 -0.431002,-0.384868 -0.69903,-0.46602c-0.074337,-0.022507 -0.234013,-0.065228 -0.310678,-0.07767c-0.242441,-0.039343 -0.306541,-0.116407 -0.854368,-0.15534c-0.154949,-0.011012 -0.391357,0.037324 -0.621361,0c-0.242441,-0.039343 -0.388348,-0.07767 -0.466019,-0.07767c-0.077669,0 -0.233009,0 -0.310678,0c-0.15534,0 -0.268646,0.05386 -0.31068,0.15534c-0.029722,0.071758 -0.077669,0.07767 -0.077669,0.15534c0,0.07767 0.047947,0.161252 0.077669,0.23301c0.042034,0.10148 0.077669,0.15534 0.15534,0.23301l0.077669,0.07767l0,0.07767l0,0.07767" id="svg_1" stroke-width="1.5" stroke="#000" fill="none"/>
  <path d="m27.766987,3.766993c0,0 -0.077671,0 -0.15534,0.07767c-0.077669,0.07767 -0.15534,0.23301 -0.233009,0.310679c-0.233009,0.23301 -0.38835,0.38835 -0.466019,0.46602c-0.15534,0.15534 -0.270779,0.21932 -0.31068,0.388349c-0.017845,0.075593 0,0.15534 -0.077669,0.23301l0,0.07767l0,0.07767l-0.15534,0.07767" id="svg_2" stroke-width="1.5" stroke="#000" fill="none"/>
  <polyline stroke-linecap="round" id="svg_3" points="27.68931660565498,4.77670122682859 27.68931660565498,4.77670122682859 " stroke-width="1.5" stroke="#000" fill="none"/>
 </g>
</svg>